<?xml version="1.0" standalone="no"?><!DOCTYPE svg PUBLIC "-//W3C//DTD SVG 1.1//EN" "http://www.w3.org/Graphics/SVG/1.1/DTD/svg11.dtd"><svg t="1699885937886" class="icon" viewBox="0 0 1024 1024" version="1.1" xmlns="http://www.w3.org/2000/svg" p-id="10734" xmlns:xlink="http://www.w3.org/1999/xlink" width="1em" height="1em"><path d="M81.92 0m81.92 0l696.32 0q81.92 0 81.92 81.92l0 860.16q0 81.92-81.92 81.92l-696.32 0q-81.92 0-81.92-81.92l0-860.16q0-81.92 81.92-81.92Z" fill="#FFC53D" p-id="10735"></path><path d="M256.28672 194.56l547.84-5.12a30.72 30.72 0 0 0-0.57344-61.44l-547.84 5.12a30.72 30.72 0 0 0 0.57344 61.44z" fill="#FFF1B8" p-id="10736"></path><path d="M256.28672 194.56l547.84-5.12a30.72 30.72 0 0 0-0.57344-61.44l-547.84 5.12a30.72 30.72 0 0 0 0.57344 61.44zM258.84672 350.72l547.84-5.12a30.72 30.72 0 0 0-0.57344-61.44l-547.84 5.12a30.72 30.72 0 0 0 0.57344 61.44z" fill="#FFF1B8" p-id="10737"></path><path d="M645.12 624.64m-215.04 0a215.04 215.04 0 1 0 430.08 0 215.04 215.04 0 1 0-430.08 0Z" fill="#FAAD14" p-id="10738"></path><path d="M645.12 624.64m-133.12 0a133.12 133.12 0 1 0 266.24 0 133.12 133.12 0 1 0-266.24 0Z" fill="#FFF1B8" p-id="10739"></path><path d="M532.48 768v204.8l112.64-51.2 112.64 51.2V768z" fill="#FAAD14" p-id="10740"></path><path d="M256 522.24h102.4a30.72 30.72 0 0 0 0-61.44H256a30.72 30.72 0 0 0 0 61.44zM256 686.08h102.4a30.72 30.72 0 0 0 0-61.44H256a30.72 30.72 0 0 0 0 61.44z" fill="#FFF1B8" p-id="10741"></path></svg>